<svg width="236" height="135" viewBox="0 0 236 135" fill="none" xmlns="http://www.w3.org/2000/svg">
<path d="M0 31V0H13.387C22.0378 0 30.2676 3.73441 35.9642 10.2449L55 32L32 55.5L14.4701 35.9781C11.6251 32.8098 7.56761 31 3.30942 31H0Z" fill="white"/>
<path d="M0 135V104H3.33632C7.57887 104 11.623 102.203 14.467 99.0553L94.566 10.3895C100.254 4.09317 108.342 0.5 116.827 0.5H135C151.569 0.5 165 13.9315 165 30.5V94C165 99.5229 169.477 104 175 104H236V135H162C145.431 135 132 121.569 132 105V37.6209C132 33.9643 129.036 31 125.379 31C122.589 31 119.928 32.1734 118.047 34.2333L34.9217 125.233C29.2379 131.455 21.1991 135 12.7717 135H0Z" fill="white"/>
<path d="M98.5 79.5L76 103L95.0357 124.755C100.732 131.266 108.962 135 117.613 135H168.5V104H127.59C123.39 104 119.383 102.239 116.542 99.1461L98.5 79.5Z" fill="white"/>
</svg>
